<svg xmlns="http://www.w3.org/2000/svg" xmlns:xlink="http://www.w3.org/1999/xlink" contentStyleType="text/css" data-diagram-type="DESCRIPTION" height="329px" preserveAspectRatio="none" style="width:908px;height:329px;background:#FFFFFF;" version="1.1" viewBox="0 0 908 329" width="908px" zoomAndPan="magnify"><defs/><g><!--cluster Spielsystem--><g class="cluster" data-entity="Spielsystem" data-source-line="4" data-uid="ent0003" id="cluster_Spielsystem"><rect fill="none" height="316" rx="2.5" ry="2.5" style="stroke:#181818;stroke-width:1;" width="817.62" x="84.91" y="7"/><text fill="#000000" font-family="sans-serif" font-size="14" font-weight="bold" lengthAdjust="spacing" textLength="95.7646" x="445.8377" y="21.9951">Spielsystem</text></g><!--entity UC_Start--><g class="entity" data-entity="UC_Start" data-source-line="6" data-uid="ent0004" id="entity_UC_Start"><ellipse cx="168.2207" cy="164.0021" fill="#F1F1F1" rx="67.3107" ry="15.8621" style="stroke:#181818;stroke-width:0.5;"/><text fill="#000000" font-family="sans-serif" font-size="14" lengthAdjust="spacing" textLength="99.5176" x="118.4619" y="168.6506">Runde starten</text></g><!--entity UC_Bild--><g class="entity" data-entity="UC_Bild" data-source-line="7" data-uid="ent0005" id="entity_UC_Bild"><ellipse cx="477.6278" cy="280.9996" fill="#F1F1F1" rx="117.0978" ry="25.8196" style="stroke:#181818;stroke-width:0.5;"/><text fill="#000000" font-family="sans-serif" font-size="14" lengthAdjust="spacing" textLength="213.1514" x="371.0521" y="285.648">Zuf&#228;lliges Raum-Bild anzeigen</text></g><!--entity UC_Stockwerk--><g class="entity" data-entity="UC_Stockwerk" data-source-line="8" data-uid="ent0006" id="entity_UC_Stockwerk"><ellipse cx="477.6268" cy="199.9994" fill="#F1F1F1" rx="89.2968" ry="20.2594" style="stroke:#181818;stroke-width:0.5;"/><text fill="#000000" font-family="sans-serif" font-size="14" lengthAdjust="spacing" textLength="152.1475" x="401.5531" y="204.6478">Stockwerk ausw&#228;hlen</text></g><!--entity UC_Raum--><g class="entity" data-entity="UC_Raum" data-source-line="9" data-uid="ent0007" id="entity_UC_Raum"><ellipse cx="477.6262" cy="126.9992" fill="#F1F1F1" rx="75.6462" ry="17.5292" style="stroke:#181818;stroke-width:0.5;"/><text fill="#000000" font-family="sans-serif" font-size="14" lengthAdjust="spacing" textLength="120.292" x="417.4802" y="131.6477">Raum ausw&#228;hlen</text></g><!--entity UC_Prf--><g class="entity" data-entity="UC_Prf" data-source-line="10" data-uid="ent0008" id="entity_UC_Prf"><ellipse cx="477.6341" cy="57.9968" fill="#F1F1F1" rx="69.6841" ry="16.3368" style="stroke:#181818;stroke-width:0.5;"/><text fill="#000000" font-family="sans-serif" font-size="14" lengthAdjust="spacing" textLength="105.5811" x="424.8435" y="62.6453">Antwort pr&#252;fen</text></g><!--entity UC_Win--><g class="entity" data-entity="UC_Win" data-source-line="11" data-uid="ent0009" id="entity_UC_Win"><ellipse cx="802.1311" cy="134.0022" fill="#F1F1F1" rx="81.9611" ry="18.7922" style="stroke:#181818;stroke-width:0.5;"/><text fill="#000000" font-family="sans-serif" font-size="14" lengthAdjust="spacing" textLength="135.2764" x="734.4929" y="138.6507">Win-Seite anzeigen</text></g><!--entity UC_Lose--><g class="entity" data-entity="UC_Lose" data-source-line="12" data-uid="ent0010" id="entity_UC_Lose"><ellipse cx="802.1314" cy="61.0003" fill="#F1F1F1" rx="84.4014" ry="19.2803" style="stroke:#181818;stroke-width:0.5;"/><text fill="#000000" font-family="sans-serif" font-size="14" lengthAdjust="spacing" textLength="140.9434" x="731.6597" y="65.6487">Lose-Seite anzeigen</text></g><!--entity Spieler--><g class="entity" data-entity="Spieler" data-source-line="2" data-uid="ent0002" id="entity_Spieler"><ellipse cx="21.9551" cy="134.35" fill="#F1F1F1" rx="8" ry="8" style="stroke:#181818;stroke-width:0.5;"/><path d="M21.9551,142.35 L21.9551,169.35 M8.9551,150.35 L34.9551,150.35 M21.9551,169.35 L8.9551,184.35 M21.9551,169.35 L34.9551,184.35" fill="none" style="stroke:#181818;stroke-width:0.5;"/><text fill="#000000" font-family="sans-serif" font-size="14" lengthAdjust="spacing" textLength="31.9102" x="6" y="198.8451">User</text></g><!--link Spieler to UC_Start--><g class="link" data-entity-1="Spieler" data-entity-2="UC_Start" data-source-line="14" data-uid="lnk11" id="link_Spieler_UC_Start"><path d="M38.39,164 C53.44,164 71.38,164 94.56,164" fill="none" id="Spieler-to-UC_Start" style="stroke:#181818;stroke-width:1;"/><polygon fill="#181818" points="100.56,164,91.56,160,95.56,164,91.56,168,100.56,164" style="stroke:#181818;stroke-width:1;"/></g><!--link UC_Start to UC_Bild--><g class="link" data-entity-1="UC_Start" data-entity-2="UC_Bild" data-source-line="16" data-uid="lnk12" id="link_UC_Start_UC_Bild"><path d="M190.03,179.48 C208.89,192.89 237.89,211.97 265.53,224 C304.95,241.15 344.975,252.8928 383.855,262.2028" fill="none" id="UC_Start-to-UC_Bild" style="stroke:#181818;stroke-width:1;"/><polygon fill="#181818" points="389.69,263.6,381.8689,257.6141,384.8275,262.4356,380.0059,265.3942,389.69,263.6" style="stroke:#181818;stroke-width:1;"/><text fill="#000000" font-family="sans-serif" font-size="13" lengthAdjust="spacing" textLength="63.0068" x="266.53" y="220.0669">&#171;include&#187;</text></g><!--link UC_Start to UC_Stockwerk--><g class="link" data-entity-1="UC_Start" data-entity-2="UC_Stockwerk" data-source-line="17" data-uid="lnk13" id="link_UC_Start_UC_Stockwerk"><path d="M208.13,177.11 C225.49,182.39 246.32,187.94 265.53,191 C305.47,197.36 344.1615,199.7756 382.1015,200.6256" fill="none" id="UC_Start-to-UC_Stockwerk" style="stroke:#181818;stroke-width:1;"/><polygon fill="#181818" points="388.1,200.76,379.1919,196.5594,383.1013,200.648,379.0127,204.5574,388.1,200.76" style="stroke:#181818;stroke-width:1;"/><text fill="#000000" font-family="sans-serif" font-size="13" lengthAdjust="spacing" textLength="63.0068" x="266.53" y="187.0669">&#171;include&#187;</text></g><!--link UC_Start to UC_Raum--><g class="link" data-entity-1="UC_Start" data-entity-2="UC_Raum" data-source-line="18" data-uid="lnk14" id="link_UC_Start_UC_Raum"><path d="M228.86,156.82 C280.71,150.58 349.823,142.2673 403.723,135.7773" fill="none" id="UC_Start-to-UC_Raum" style="stroke:#181818;stroke-width:1;"/><polygon fill="#181818" points="409.68,135.06,400.2664,132.1646,404.7159,135.6577,401.2227,140.1072,409.68,135.06" style="stroke:#181818;stroke-width:1;"/><text fill="#000000" font-family="sans-serif" font-size="13" lengthAdjust="spacing" textLength="63.0068" x="266.53" y="142.0669">&#171;include&#187;</text></g><!--link UC_Start to UC_Prf--><g class="link" data-entity-1="UC_Start" data-entity-2="UC_Prf" data-source-line="19" data-uid="lnk15" id="link_UC_Start_UC_Prf"><path d="M199.19,149.47 C218,140.64 242.89,129.47 265.53,121 C320.87,100.29 380.5033,83.1788 423.6933,71.6388" fill="none" id="UC_Start-to-UC_Prf" style="stroke:#181818;stroke-width:1;"/><polygon fill="#181818" points="429.49,70.09,419.7625,68.5488,424.6595,71.3807,421.8276,76.2777,429.49,70.09" style="stroke:#181818;stroke-width:1;"/><text fill="#000000" font-family="sans-serif" font-size="13" lengthAdjust="spacing" textLength="63.0068" x="266.53" y="96.0669">&#171;include&#187;</text></g><!--link UC_Prf to UC_Win--><g class="link" data-entity-1="UC_Prf" data-entity-2="UC_Win" data-source-line="21" data-uid="lnk16" id="link_UC_Prf_UC_Win"><path d="M527.96,69.63 C586.01,83.31 676.4099,104.6142 737.7899,119.0742" fill="none" id="UC_Prf-to-UC_Win" style="stroke:#181818;stroke-width:1;"/><polygon fill="#181818" points="743.63,120.45,735.787,114.4928,738.7632,119.3035,733.9526,122.2797,743.63,120.45" style="stroke:#181818;stroke-width:1;"/><text fill="#000000" font-family="sans-serif" font-size="13" lengthAdjust="spacing" textLength="61.1851" x="625.73" y="90.0669">&#171;extend&#187;</text></g><!--link UC_Prf to UC_Lose--><g class="link" data-entity-1="UC_Prf" data-entity-2="UC_Lose" data-source-line="22" data-uid="lnk17" id="link_UC_Prf_UC_Lose"><path d="M547.42,58.64 C597.18,59.1 658.6903,59.6744 711.5603,60.1644" fill="none" id="UC_Prf-to-UC_Lose" style="stroke:#181818;stroke-width:1;"/><polygon fill="#181818" points="717.56,60.22,708.5975,56.1368,712.5602,60.1737,708.5233,64.1364,717.56,60.22" style="stroke:#181818;stroke-width:1;"/><text fill="#000000" font-family="sans-serif" font-size="13" lengthAdjust="spacing" textLength="61.1851" x="625.73" y="56.0669">&#171;extend&#187;</text></g><!--SRC=[XP5DRiCW48Ntd6BalIzGHPRQRhkeOaMHkgaGZ1qK0X4CSd_Ks-GOtVbY1MhND4qLYGMyzp7CF3Hs16J1gNv789L3GSeQnWLP1zN6ewk0UsYF2ZKwnXB0JQyHggpvLqzugE2T0SGLF0hkexaEHY9uuexGv1AR- -Ss7KlgANJZIMlLeuSr3uVwJca9tBnXb7wk9R6yrP8L-m7T7dZmmtZQwVA9oVlLJ2nzWKroYTqQ6gmZEBhnirkmHzULr5QPkaL5-AVFw9JWW_Nu3vai5jafLgZhPiadwlD-Dd8iDx1QAIDqaDWq5w0bbcjapkCQ5CS-OxwXf4z873WZ-18_MSvL2Y3DUKQmZoy0]--></g></svg>