<svg xmlns="http://www.w3.org/2000/svg" xmlns:xlink="http://www.w3.org/1999/xlink" contentStyleType="text/css" data-diagram-type="DESCRIPTION" height="193px" preserveAspectRatio="none" style="width:161px;height:193px;background:#FFFFFF;" version="1.1" viewBox="0 0 161 193" width="161px" zoomAndPan="magnify"><defs/><g><!--cluster Application--><g class="cluster" data-entity="Application" data-source-line="2" data-uid="ent0003" id="cluster_Application"><path d="M8.5,106.79 L98.7979,106.79 A3.75,3.75 0 0 1 101.2979,109.29 L108.2979,129.0869 L151.5,129.0869 A2.5,2.5 0 0 1 154,131.5869 L154,184.34 A2.5,2.5 0 0 1 151.5,186.84 L8.5,186.84 A2.5,2.5 0 0 1 6,184.34 L6,109.29 A2.5,2.5 0 0 1 8.5,106.79" fill="none" style="stroke:#000000;stroke-width:1.5;"/><line style="stroke:#000000;stroke-width:1.5;" x1="6" x2="108.2979" y1="129.0869" y2="129.0869"/><text fill="#000000" font-family="sans-serif" font-size="14" font-weight="bold" lengthAdjust="spacing" textLength="89.2979" x="10" y="121.7851">Application</text></g><!--entity UC1--><g class="entity" data-entity="UC1" data-source-line="3" data-uid="ent0004" id="entity_UC1"><ellipse cx="80.004" cy="156.3236" fill="#F1F1F1" rx="58.414" ry="14.5236" style="stroke:#181818;stroke-width:0.5;"/><text fill="#000000" font-family="sans-serif" font-size="14" lengthAdjust="spacing" textLength="78.3672" x="40.8204" y="160.9721">Start game</text></g><!--entity u--><g class="entity" data-entity="u" data-source-line="1" data-uid="ent0002" id="entity_u"><ellipse cx="79.9981" cy="14" fill="#F1F1F1" rx="8" ry="8" style="stroke:#181818;stroke-width:0.5;"/><path d="M79.9981,22 L79.9981,49 M66.9981,30 L92.9981,30 M79.9981,49 L66.9981,64 M79.9981,49 L92.9981,64" fill="none" style="stroke:#181818;stroke-width:0.5;"/><text fill="#000000" font-family="sans-serif" font-size="14" lengthAdjust="spacing" textLength="30.5361" x="64.73" y="78.4951">user</text></g><!--link u to UC1--><g class="link" data-entity-1="u" data-entity-2="UC1" data-source-line="5" data-uid="lnk5" id="link_u_UC1"><path d="M80,82.11 C80,102.56 80,120.64 80,135.45" fill="none" id="u-to-UC1" style="stroke:#181818;stroke-width:1;"/><polygon fill="#181818" points="80,141.45,84,132.45,80,136.45,76,132.45,80,141.45" style="stroke:#181818;stroke-width:1;"/></g><!--SRC=[IqmkoIzIA2rEBL98B5OevIf8JCvEJ4zLS2meoCbCJYp9pCzJgEPI0Ab8JYnELL0ABaaiAb58JynDLGBf27KsvAhbAbNGrRK3iG40]--></g></svg>